<svg width="21" height="19" viewBox="0 0 21 19" fill="none" xmlns="http://www.w3.org/2000/svg">
<path d="M8.02734 7.125H9.27734V14.25H8.02734V7.125ZM11.7773 7.125H13.0273V14.25H11.7773V7.125Z" fill="#535151"/>
<path d="M3.02734 3.5625V4.75H4.27734V16.625C4.27734 16.9399 4.40904 17.242 4.64346 17.4647C4.87788 17.6874 5.19582 17.8125 5.52734 17.8125H15.5273C15.8589 17.8125 16.1768 17.6874 16.4112 17.4647C16.6456 17.242 16.7773 16.9399 16.7773 16.625V4.75H18.0273V3.5625H3.02734ZM5.52734 16.625V4.75H15.5273V16.625H5.52734ZM8.02734 1.1875H13.0273V2.375H8.02734V1.1875Z" fill="#535151"/>
</svg>
