<svg width="21" height="20" viewBox="0 0 21 20" fill="none" xmlns="http://www.w3.org/2000/svg">
<g clip-path="url(#clip0_330_5684)">
<path d="M16.0833 16.6668H3.86111V4.44461H11.2056L12.3167 3.3335H3.86111C3.56643 3.3335 3.28381 3.45056 3.07544 3.65893C2.86706 3.86731 2.75 4.14992 2.75 4.44461V16.6668C2.75 16.9615 2.86706 17.2441 3.07544 17.4525C3.28381 17.6609 3.56643 17.7779 3.86111 17.7779H16.0833C16.378 17.7779 16.6606 17.6609 16.869 17.4525C17.0774 17.2441 17.1944 16.9615 17.1944 16.6668V8.3335L16.0833 9.44461V16.6668Z" fill="#535151"/>
<path d="M19.1557 3.24444L17.2835 1.37222C17.2004 1.2889 17.1017 1.2228 16.993 1.1777C16.8843 1.13259 16.7678 1.10937 16.6501 1.10938C16.5325 1.10938 16.416 1.13259 16.3073 1.1777C16.1986 1.2228 16.0999 1.2889 16.0168 1.37222L8.40014 9.03333L7.78347 11.7056C7.7572 11.8351 7.75996 11.9688 7.79156 12.0972C7.82316 12.2255 7.8828 12.3452 7.96621 12.4478C8.04961 12.5503 8.15471 12.6331 8.27392 12.6901C8.39314 12.7472 8.52353 12.7771 8.65569 12.7778C8.72401 12.7853 8.79294 12.7853 8.86125 12.7778L11.5557 12.1833L19.1557 4.51111C19.239 4.42802 19.3051 4.32931 19.3502 4.22063C19.3953 4.11195 19.4185 3.99544 19.4185 3.87777C19.4185 3.76011 19.3953 3.6436 19.3502 3.53492C19.3051 3.42624 19.239 3.32753 19.1557 3.24444ZM10.9779 11.1556L8.94458 11.6056L9.41681 9.58889L15.1501 3.81666L16.7168 5.38333L10.9779 11.1556ZM17.3446 4.75555L15.7779 3.18888L16.639 2.31111L18.2168 3.88889L17.3446 4.75555Z" fill="#535151"/>
</g>
<defs>
<clipPath id="clip0_330_5684">
<rect width="20" height="20" fill="white" transform="translate(0.527344)"/>
</clipPath>
</defs>
</svg>
